<?xml version="1.0" encoding="UTF-8"?>
<svg width="512px" height="512px" clip-rule="evenodd" fill-rule="evenodd" image-rendering="optimizeQuality" shape-rendering="geometricPrecision" text-rendering="geometricPrecision" version="1.1" xmlns="http://www.w3.org/2000/svg" xmlns:cc="http://creativecommons.org/ns#" xmlns:dc="http://purl.org/dc/elements/1.1/" xmlns:rdf="http://www.w3.org/1999/02/22-rdf-syntax-ns#">
 <metadata>
  <rdf:RDF>
   <cc:Work rdf:about="">
    <dc:format>image/svg+xml</dc:format>
    <dc:type rdf:resource="http://purl.org/dc/dcmitype/StillImage"/>
    <dc:title/>
   </cc:Work>
  </rdf:RDF>
 </metadata>
 <path d="m179.5-0.5h64c29.52 2.0342 58.52 7.5342 87 16.5 9.11 3.3855 17.443 8.0522 25 14 4.676 4.5197 6.676 10.02 6 16.5-3.004 7.1775-8.004 12.678-15 16.5-20.955 10.073-42.955 16.739-66 20-48.385 6.1626-96.718 5.8293-145-1-21.508-3.2808-41.841-9.9474-61-20-7.2543-4.3941-11.921-10.561-14-18.5 1.0718-6.2493 4.0718-11.416 9-15.5 20.329-12.222 42.329-19.888 66-23 14.774-2.1765 29.44-4.0099 44-5.5z" fill="#94a4a4" opacity=".996"/>
 <path d="m60.5 43.5c2.079 7.9392 6.7457 14.106 14 18.5 19.159 10.053 39.492 16.719 61 20 48.282 6.8293 96.615 7.1626 145 1 23.045-3.2606 45.045-9.9272 66-20 6.996-3.8225 11.996-9.3225 15-16.5v23 15 46c-65.51-18.39-117.84-0.056-157 55-34.83-0.488-69.164-5.321-103-14.5-14.541-3.685-27.041-10.851-37.5-21.5-0.7568-1.815-1.5902-3.481-2.5-5 0.331-25.172-0.0023-50.172-1-75v-26z" fill="#547580" opacity=".999"/>
 <path d="m60.5 69.5c0.9977 24.828 1.331 49.828 1 75v97 18c-25.729 41.193-40.062 86.193-43 135-0.9994-97.832-1.3328-195.83-1-294 2.325-14.832 10.658-24.665 25-29.5 5.9348-1.2386 11.935-1.7386 18-1.5z" fill="#afd2ef"/>
 <path d="m361.5 69.5c34.71-0.3198 69.377 0.0135 104 1-34.764 2.9442-69.431 7.6109-104 14v-15z" fill="#aed1ef"/>
 <path d="m465.5 70.5c15.802 3.97 25.302 13.97 28.5 30 0.5 107.33 0.667 214.67 0.5 322-50.164 0.999-100.5 1.332-151 1h-176c-50.503 0.332-100.84-1e-3 -151-1v-7c1.0655-6.817 1.7322-13.817 2-21 2.938-48.807 17.271-93.807 43-135-0.1666 26.335 0 52.669 0.5 79 3.039 6.377 7.539 11.543 13.5 15.5 24.639 11.995 50.639 19.328 78 22 36.328 3.089 72.661 3.256 109 0.5 34.771 14.138 69.771 14.638 105 1.5 52.172-24.037 79.505-64.871 82-122.5-2.852-60.489-32.185-102.16-88-125v-46c34.569-6.3891 69.236-11.056 104-14z" fill="#8fb9e0" opacity=".995"/>
 <path d="m17.5 100.5c-0.3328 98.168 6e-4 196.17 1 294-0.2678 7.183-0.9345 14.183-2 21-0.3328-105.17 5e-4 -210.17 1-315z" fill="#a3c8e9" opacity=".575"/>
 <path d="m361.5 130.5c55.815 22.845 85.148 64.511 88 125-2.495 57.629-29.828 98.463-82 122.5-35.229 13.138-70.229 12.638-105-1.5-40.887-20.089-66.22-52.422-76-97-5.414-33.592 0.586-64.925 18-94 39.157-55.056 91.49-73.39 157-55z" fill="#46b29d"/>
 <path d="m61.5 144.5c0.9098 1.519 1.7432 3.185 2.5 5 10.459 10.649 22.959 17.815 37.5 21.5 33.836 9.179 68.17 14.012 103 14.5-17.414 29.075-23.414 60.408-18 94-0.47 1.193-1.47 1.86-3 2-26.777-1.523-53.111-5.69-79-12.5-15.679-3.752-29.179-11.252-40.5-22.5-0.7568-1.815-1.5902-3.481-2.5-5v-97z" fill="#3f5c6c"/>
 <path d="m303.5 176.5c24.664-3.042 46.497 3.291 65.5 19 3.02 7.627 0.52 12.293-7.5 14-1.799-0.077-3.466-0.577-5-1.5-31.519-21.72-60.686-18.887-87.5 8.5-17.887 25.961-17.887 51.961 0 78 20.495 22.582 44.995 28.415 73.5 17.5 25.047-12.742 37.213-33.242 36.5-61.5l-11.5 11.5c-6.662 4.27-11.495 2.77-14.5-4.5-0.667-1.667-0.667-3.333 0-5 9.833-11.167 20.333-21.667 31.5-31.5 3.134-0.79 6.134-0.457 9 1 9.864 9.53 19.364 19.363 28.5 29.5 1.721 10.376-2.446 14.209-12.5 11.5l-12.5-12.5c-1.336 45.654-24.169 73.487-68.5 83.5-38.171 3.503-66.004-11.664-83.5-45.5-15.128-40.332-5.628-73.499 28.5-99.5 9.51-5.596 19.51-9.763 30-12.5z" fill="#fcfefd"/>
 <path d="m61.5 241.5c0.9098 1.519 1.7432 3.185 2.5 5 11.321 11.248 24.821 18.748 40.5 22.5 25.889 6.81 52.223 10.977 79 12.5 1.53-0.14 2.53-0.807 3-2 9.78 44.578 35.113 76.911 76 97-36.339 2.756-72.672 2.589-109-0.5-27.361-2.672-53.361-10.005-78-22-5.961-3.957-10.461-9.123-13.5-15.5-0.5-26.331-0.6666-52.665-0.5-79v-18z" fill="#547580"/>
 <path d="m16.5 422.5c50.164 0.999 100.5 1.332 151 1-0.381 9.068 0.119 18.068 1.5 27 3.655 8.322 9.822 13.822 18.5 16.5 45 0.667 90 0.667 135 0 10.825-2.825 17.658-9.658 20.5-20.5 0.5-7.659 0.666-15.326 0.5-23 50.503 0.332 100.84-1e-3 151-1 6.666-1.237 12.333 0.43 17 5v42c-6.445 22.112-20.778 36.112-43 42h-426c-22.222-5.888-36.555-19.888-43-42v-42c4.667-4.57 10.334-6.237 17-5z" fill="#537580" opacity=".998"/>
 <path d="m167.5 423.5h176c0.166 7.674 0 15.341-0.5 23-2.842 10.842-9.675 17.675-20.5 20.5-45 0.667-90 0.667-135 0-8.678-2.678-14.845-8.178-18.5-16.5-1.381-8.932-1.881-17.932-1.5-27z" fill="#3f5c6c"/>
 <path d="m31.5 449.5c8.5362-0.3 12.37 3.7 11.5 12-2.3529 4.926-6.1862 6.76-11.5 5.5-4.6549-2.897-6.1549-7.063-4.5-12.5 1.1932-1.997 2.6932-3.664 4.5-5z" fill="#64d9b7"/>
 <path d="m67.5 449.5c8.7276 0.125 12.228 4.458 10.5 13-5.7431 6.921-11.076 6.588-16-1-0.6667-2.333-0.6667-4.667 0-7 1.7297-1.902 3.563-3.569 5.5-5z" fill="#64dab7"/>
 <path d="m102.5 449.5c10.672-0.167 21.339 0 32 0.5 5.589 2.451 7.422 6.617 5.5 12.5-1.637 2.31-3.804 3.81-6.5 4.5-10.333 0.667-20.667 0.667-31 0-7.9443-5.869-7.9443-11.703 0-17.5z" fill="#3f5c6c"/>
 <text x="31.014948" y="411.85483" fill="#ffffff" font-family="'Tw Cen MT Condensed'" font-size="35.361px" letter-spacing="0px" stroke-width=".88403" word-spacing="0px" style="line-height:1.95" xml:space="preserve"><tspan x="31.014948" y="411.85483" fill="#ffffff" font-family="'Tw Cen MT Condensed'" stroke-width=".88403">Service Expired</tspan></text>
</svg>
